<?xml version="1.0" standalone="no"?>
<!DOCTYPE svg PUBLIC "-//W3C//DTD SVG 20010904//EN"
 "http://www.w3.org/TR/2001/REC-SVG-20010904/DTD/svg10.dtd">
<svg version="1.0" xmlns="http://www.w3.org/2000/svg"
 width="1024.000000pt" height="1024.000000pt" viewBox="0 0 1024.000000 1024.000000"
 preserveAspectRatio="xMidYMid meet">
<metadata>
Created by potrace 1.11, written by Peter Selinger 2001-2013
</metadata>
<g transform="translate(0.000000,1024.000000) scale(0.100000,-0.100000)"
fill="#000000" stroke="none">
<path d="M802 9599 c-9 -3 -27 -4 -39 -3 -13 1 -23 -2 -23 -6 0 -4 -8 -10 -18
-12 -11 -3 -32 -22 -48 -43 l-29 -38 0 -218 c0 -204 1 -219 21 -245 30 -40 67
-66 101 -68 16 -2 34 -5 39 -8 5 -3 18 -2 29 2 11 4 29 4 41 0 11 -5 27 -5 34
0 7 4 24 4 39 0 14 -4 35 -4 46 0 11 4 29 4 41 0 11 -5 27 -5 34 0 7 4 24 4
39 0 14 -4 35 -4 46 0 11 4 30 4 41 -1 12 -4 25 -5 28 -2 7 7 136 6 143 0 2
-3 20 -1 39 3 19 4 36 4 39 -1 3 -4 16 -5 28 0 12 5 31 5 42 1 11 -4 24 -5 30
-2 12 8 102 5 115 -3 6 -3 10 -3 10 2 0 4 16 8 35 8 19 0 35 -3 35 -7 0 -4 13
-3 30 2 17 5 32 5 35 0 3 -5 16 -5 28 -1 12 5 34 5 49 0 16 -4 28 -5 28 -1 0
4 16 7 35 7 19 0 35 -3 35 -7 0 -4 13 -3 30 2 17 5 32 5 35 0 3 -5 16 -5 28
-1 12 5 34 5 49 0 16 -4 28 -5 28 -1 0 4 16 7 35 7 19 0 35 -3 35 -7 0 -4 13
-3 30 2 17 5 32 5 35 0 3 -5 16 -5 28 -1 12 5 34 5 49 0 16 -4 28 -5 28 -1 0
4 16 7 35 7 19 0 35 -3 35 -7 0 -4 13 -3 30 2 17 5 32 5 35 0 3 -5 16 -5 28
-1 12 5 34 5 49 0 16 -4 28 -5 28 -1 0 4 16 7 35 7 19 0 35 -3 35 -7 0 -4 13
-3 30 2 17 5 32 5 35 0 3 -5 16 -5 28 -1 12 5 34 5 49 0 16 -4 28 -5 28 -1 0
4 16 7 35 7 19 0 35 -3 35 -7 0 -4 13 -3 30 2 17 5 32 5 35 0 3 -5 16 -5 28
-1 12 5 34 5 49 0 16 -4 28 -5 28 -1 0 4 16 7 35 7 19 0 35 -3 35 -7 0 -4 13
-3 30 2 17 5 32 5 35 0 3 -5 16 -5 28 -1 12 5 34 5 49 0 16 -4 28 -5 28 -1 0
4 16 7 35 7 19 0 35 -3 35 -7 0 -4 13 -3 29 2 16 4 32 6 35 3 2 -3 26 -6 53
-7 50 -3 89 -18 111 -45 11 -14 35 -62 140 -281 15 -30 27 -57 27 -60 0 -3 6
-15 13 -27 8 -15 9 -23 2 -23 -5 0 -10 -6 -10 -13 0 -12 -44 -121 -91 -224
-10 -24 -19 -46 -19 -49 0 -3 -6 -20 -14 -37 -8 -18 -26 -61 -41 -97 -14 -36
-30 -73 -36 -84 -6 -10 -12 -26 -14 -35 -2 -9 -14 -38 -26 -66 -13 -27 -24
-52 -24 -55 -2 -6 -5 -14 -68 -165 -27 -66 -58 -139 -68 -162 -11 -23 -19 -45
-19 -48 0 -4 -7 -21 -15 -38 -17 -38 -105 -248 -110 -262 -14 -46 -19 -55 -28
-55 -6 0 -8 -3 -4 -6 3 -3 -5 -30 -18 -60 -13 -30 -25 -58 -25 -62 -1 -4 -10
-26 -21 -49 -10 -23 -19 -44 -19 -46 0 -3 -8 -22 -17 -43 -9 -22 -17 -41 -18
-44 -2 -7 -20 -50 -43 -100 -10 -25 -32 -76 -47 -115 -16 -38 -39 -95 -53
-125 -13 -30 -25 -59 -27 -65 -1 -5 -8 -23 -15 -40 -7 -16 -14 -32 -15 -35 -1
-3 -6 -16 -12 -30 -6 -14 -23 -54 -37 -90 -30 -71 -50 -119 -71 -165 -8 -16
-11 -33 -9 -37 3 -4 0 -8 -5 -8 -6 0 -11 -8 -11 -18 0 -10 -4 -22 -8 -27 -5
-6 -16 -28 -25 -50 -8 -22 -23 -58 -33 -80 -10 -22 -19 -44 -20 -50 -1 -5 -10
-28 -20 -50 -10 -22 -18 -42 -19 -45 -1 -3 -6 -16 -12 -30 -74 -175 -95 -227
-97 -235 -3 -11 -27 -67 -55 -130 -10 -22 -24 -58 -31 -80 -7 -22 -16 -42 -19
-45 -6 -4 -41 -89 -47 -110 0 -3 -8 -22 -17 -42 -10 -21 -17 -40 -17 -42 0 -3
-11 -29 -24 -58 -53 -118 -64 -147 -58 -152 3 -3 0 -6 -6 -6 -7 0 -12 -6 -12
-13 0 -11 -54 -147 -80 -202 -5 -11 -18 -42 -29 -70 -10 -27 -31 -77 -46 -109
-15 -33 -28 -65 -30 -70 -1 -6 -7 -22 -13 -36 -5 -14 -44 -108 -86 -210 -42
-102 -83 -198 -91 -215 -8 -16 -24 -55 -35 -85 -12 -30 -28 -71 -37 -90 -10
-19 -18 -40 -19 -45 -1 -6 -11 -32 -23 -57 -11 -26 -21 -49 -21 -53 0 -3 -9
-24 -19 -48 -11 -23 -45 -103 -76 -177 -30 -74 -60 -144 -64 -155 -45 -102
-114 -273 -114 -282 0 -7 -4 -13 -9 -13 -4 0 -8 -5 -8 -11 0 -10 -92 -236
-166 -407 -8 -18 -14 -38 -14 -45 0 -7 -5 -18 -12 -25 -6 -6 -13 -18 -14 -26
-1 -7 -9 -29 -17 -47 -24 -53 -128 -303 -131 -314 -1 -5 -12 -30 -23 -55 -11
-25 -29 -69 -39 -97 -10 -29 -22 -53 -26 -53 -5 0 -8 -7 -8 -16 0 -9 -6 -30
-14 -47 -8 -18 -29 -66 -46 -107 -17 -41 -35 -84 -40 -95 -5 -11 -41 -99 -80
-195 -39 -96 -80 -194 -91 -217 -10 -24 -19 -50 -19 -58 0 -8 -4 -15 -10 -15
-5 0 -10 -8 -10 -18 0 -10 -7 -28 -16 -40 -8 -12 -12 -22 -8 -22 3 0 2 -6 -4
-12 -6 -7 -10 -15 -10 -18 -1 -3 -6 -18 -12 -35 -24 -62 -1 -138 53 -179 31
-23 107 -42 152 -37 11 1 25 2 30 2 20 0 141 -1 160 -1 11 0 38 1 60 1 35 0
65 2 101 7 41 6 98 97 149 237 10 28 22 55 27 61 5 7 10 20 13 30 2 11 14 42
26 69 13 28 24 52 24 55 1 3 8 19 15 35 7 17 15 39 17 50 2 10 7 22 12 25 4 3
14 23 21 45 7 22 18 46 24 54 6 8 10 16 9 17 -1 2 6 24 17 50 11 25 20 48 20
50 0 3 8 24 19 47 10 23 29 67 41 97 12 30 31 74 41 97 11 24 19 45 19 48 0 3
9 24 19 48 11 23 40 92 65 152 24 61 53 128 62 150 10 22 18 42 19 45 1 13
158 386 166 395 4 6 10 22 12 36 3 13 14 41 26 62 11 20 19 37 16 37 -4 0 13
41 61 148 13 29 24 57 24 62 0 6 4 18 10 28 10 18 24 50 66 152 14 36 31 76
37 90 6 14 11 27 12 30 1 3 7 17 13 33 7 15 17 39 24 55 6 15 11 30 10 35 -1
4 2 7 6 7 5 0 9 6 9 13 0 6 14 46 32 87 18 41 36 85 42 98 5 12 13 32 18 45 6
12 24 56 41 97 43 103 46 110 64 152 9 20 16 39 16 42 0 3 11 29 24 58 22 48
39 93 36 93 -1 0 15 35 34 77 20 43 33 78 29 78 -3 0 2 8 11 19 9 10 18 28 19
40 1 11 5 21 9 21 4 0 8 6 8 13 0 12 43 119 86 214 8 18 21 50 28 70 8 21 22
56 32 78 10 22 18 42 19 45 3 9 25 65 35 85 5 11 21 49 35 85 40 95 42 100 66
155 12 27 22 54 24 60 1 5 10 28 20 50 18 42 37 86 40 95 3 9 17 43 62 148 23
57 43 104 43 106 0 2 8 21 17 42 9 22 17 41 18 44 3 11 26 66 35 85 29 62 103
242 103 253 0 6 3 12 7 12 4 0 7 6 7 13 1 6 35 91 75 187 80 188 90 212 93
220 3 9 25 61 76 182 27 65 49 120 49 122 0 2 10 25 22 52 12 27 23 51 23 54
1 3 6 16 12 30 6 14 27 63 46 110 19 47 62 150 95 230 33 80 84 201 113 270
28 69 56 136 62 150 6 14 11 27 12 30 3 10 19 46 42 100 14 30 26 64 29 74 2
11 9 23 15 26 6 4 10 10 10 14 -5 37 11 34 28 -6 15 -35 58 -129 111 -243 18
-38 43 -92 55 -120 22 -49 54 -117 120 -260 18 -38 45 -97 60 -130 15 -33 47
-103 72 -155 25 -52 52 -113 60 -135 9 -22 19 -44 23 -50 4 -5 45 -91 90 -190
45 -99 102 -222 126 -274 24 -51 44 -95 44 -97 0 -2 20 -45 45 -94 24 -50 44
-93 45 -95 0 -5 39 -91 88 -195 14 -30 25 -58 24 -62 -1 -3 5 -12 13 -18 8 -7
15 -16 15 -21 0 -4 5 -20 12 -36 6 -15 12 -30 13 -33 1 -3 19 -41 39 -85 21
-44 52 -109 68 -145 17 -36 43 -92 58 -125 57 -123 97 -210 98 -218 1 -4 8
-20 16 -35 14 -24 95 -195 141 -297 32 -72 72 -159 113 -245 35 -72 60 -129
67 -150 1 -3 19 -41 40 -85 20 -44 51 -109 67 -145 17 -36 45 -96 63 -135 18
-38 44 -95 58 -125 14 -30 46 -100 72 -155 44 -95 66 -144 70 -155 1 -3 16
-35 33 -72 18 -38 45 -96 61 -130 16 -35 44 -97 64 -138 19 -41 46 -100 60
-130 75 -166 91 -200 115 -250 15 -30 27 -57 27 -60 1 -3 17 -39 37 -80 57
-120 98 -210 98 -215 1 -2 19 -41 40 -85 22 -44 40 -82 40 -84 0 -2 22 -51 49
-108 43 -91 85 -181 189 -408 16 -36 45 -99 65 -140 19 -41 45 -97 57 -125 13
-27 43 -93 67 -145 25 -52 45 -99 46 -105 1 -5 4 -12 7 -15 3 -3 16 -30 30
-60 51 -111 134 -218 210 -270 19 -13 37 -27 40 -30 5 -6 120 -63 130 -65 3 0
11 -4 18 -8 6 -5 12 -6 12 -3 0 2 15 0 33 -5 17 -5 64 -12 102 -15 39 -3 73
-8 78 -11 4 -2 7 0 7 5 0 5 19 6 43 2 24 -3 52 -3 63 0 10 4 32 4 49 0 16 -3
44 -3 62 1 18 3 35 4 38 1 2 -3 28 -4 57 -4 111 3 150 3 155 -2 2 -2 17 -1 32
4 16 4 33 5 40 1 6 -4 34 -4 61 -1 28 4 50 4 50 1 0 -3 24 -5 52 -3 29 2 67 2
83 1 17 0 37 -1 45 0 66 2 112 1 119 -4 5 -3 12 -1 15 4 3 5 21 6 40 1 19 -4
53 -4 75 0 23 4 41 4 41 0 0 -4 18 -4 40 0 22 4 40 4 40 0 0 -4 18 -4 40 0 22
4 40 4 40 0 0 -4 18 -4 39 0 22 4 45 4 52 0 6 -4 24 -4 39 0 15 4 33 4 41 0 7
-5 16 -7 19 -5 4 2 30 6 58 9 65 7 114 39 136 89 24 56 23 408 -2 460 -22 45
-68 76 -123 83 -23 3 -47 7 -51 10 -4 3 -8 1 -8 -5 0 -7 -8 -7 -25 -1 -15 6
-27 6 -30 0 -3 -6 -15 -6 -30 0 -15 6 -27 6 -30 0 -3 -6 -15 -6 -30 0 -15 6
-27 6 -30 0 -3 -6 -15 -6 -30 0 -15 6 -27 6 -30 0 -3 -6 -15 -6 -30 0 -15 6
-27 6 -30 0 -3 -6 -15 -6 -30 0 -15 6 -27 6 -30 -1 -4 -5 -11 -7 -16 -3 -13 7
-102 9 -115 2 -5 -3 -18 -2 -29 2 -11 4 -30 4 -42 -1 -13 -5 -23 -5 -23 -1 0
8 -138 8 -146 0 -3 -3 -21 -2 -40 2 -19 4 -36 4 -39 -1 -3 -4 -16 -4 -28 0
-12 5 -32 5 -44 0 -13 -5 -23 -5 -23 -1 0 8 -138 8 -146 0 -3 -3 -21 -2 -40 2
-19 4 -36 4 -39 -1 -3 -4 -16 -4 -28 0 -12 5 -32 5 -44 0 -13 -5 -23 -5 -23
-1 0 6 -134 7 -150 2 -3 -2 -8 -2 -11 -2 -82 9 -103 15 -130 40 -33 29 -82
115 -72 126 4 3 2 6 -4 6 -6 0 -16 15 -23 33 -17 40 -57 130 -126 276 -30 62
-54 115 -54 116 0 3 -69 153 -103 225 -12 25 -21 48 -19 53 1 4 -2 7 -8 7 -5
0 -10 6 -10 13 0 7 -14 39 -31 72 -17 33 -31 61 -30 62 0 2 -13 33 -30 70 -17
38 -43 93 -56 123 -41 90 -84 182 -109 234 -13 28 -24 56 -24 63 0 7 -4 13
-10 13 -5 0 -10 4 -10 10 0 9 -25 66 -88 200 -14 30 -27 57 -27 60 -1 3 -15
34 -32 70 -73 156 -103 222 -103 231 0 5 -4 9 -8 9 -5 0 -9 6 -9 13 0 6 -20
53 -43 102 -67 141 -116 246 -140 300 -12 28 -33 72 -46 99 -13 28 -24 56 -24
63 0 7 -4 13 -10 13 -5 0 -10 4 -10 10 0 5 -16 45 -36 87 -20 43 -58 127 -86
187 -27 60 -53 116 -58 125 -5 9 -20 41 -33 71 -36 81 -102 224 -191 414 -31
65 -56 120 -56 121 0 2 -17 41 -39 87 -21 45 -63 137 -94 203 -61 133 -128
276 -160 345 -11 25 -20 48 -19 53 1 4 -3 7 -8 7 -5 0 -9 3 -8 8 1 4 -9 30
-22 57 -12 28 -41 88 -63 135 -37 79 -58 124 -117 255 -12 28 -40 88 -62 135
-22 47 -49 105 -61 130 -11 25 -44 95 -73 157 -28 61 -49 114 -46 117 3 3 0 6
-6 6 -7 0 -12 5 -12 10 0 6 -16 46 -36 88 -20 42 -49 105 -65 140 -80 171 -93
201 -117 252 -14 30 -27 57 -27 60 -3 9 -55 120 -90 190 -19 39 -34 73 -35 75
0 5 -51 116 -96 210 -16 33 -29 62 -30 65 -1 6 -25 60 -78 173 -20 42 -36 81
-36 86 0 5 -7 14 -15 21 -9 7 -14 15 -11 17 2 2 -14 40 -35 84 -21 44 -39 81
-39 83 0 2 -20 46 -44 98 -24 51 -53 116 -66 143 -12 28 -39 86 -60 130 -21
44 -48 103 -60 130 -26 59 -64 139 -114 248 -20 42 -36 81 -36 86 0 5 -7 14
-15 21 -9 7 -14 15 -11 17 6 6 -71 160 -107 212 -77 113 -199 201 -332 239
-110 32 -147 38 -187 31 -21 -3 -40 -4 -42 -1 -3 2 -555 3 -1228 3 -673 -1
-1239 -1 -1258 -1 -121 5 -294 4 -308 -1z"/>
</g>
</svg>
